<?xml version="1.0" encoding="UTF-8" standalone="no" ?>
<!DOCTYPE svg PUBLIC "-//W3C//DTD SVG 1.1//EN" "http://www.w3.org/Graphics/SVG/1.1/DTD/svg11.dtd">
<svg xmlns="http://www.w3.org/2000/svg" xmlns:xlink="http://www.w3.org/1999/xlink" version="1.1" width="100" height="100" viewBox="0 0 640 640" xml:space="preserve">
<desc>Created with Fabric.js 5.3.0</desc>
<defs>
</defs>
<g transform="matrix(6.04 0 0 1.0982015504 320.0000239603 320)" id="nsQYwKA1QOXOLZFV8EXMJ"  >
<path style="stroke: rgb(159,57,216); stroke-width: 0; stroke-dasharray: none; stroke-linecap: butt; stroke-dashoffset: 0; stroke-linejoin: miter; stroke-miterlimit: 4; fill: rgb(0,0,0); fill-rule: nonzero; opacity: 1;"  transform=" translate(0, 0)" d="M -52.89256 -32.45878 C -52.89256 -37.878159999999994 -52.50113 -43.07557 -51.804370000000006 -46.90765 C -51.107620000000004 -50.739729999999994 -50.16261000000001 -52.89257 -49.177260000000004 -52.89257 L 49.17725999999999 -52.89257 L 49.17725999999999 -52.89257 C 50.16261999999999 -52.89257 51.10761999999999 -50.73973 51.80436999999999 -46.90765 C 52.50111999999999 -43.07557 52.89255999999999 -37.878159999999994 52.89255999999999 -32.45878 L 52.89255999999999 32.45878 L 52.89255999999999 32.45878 C 52.89255999999999 43.74405 51.229159999999986 52.892559999999996 49.17725999999999 52.892559999999996 L -49.177260000000004 52.892559999999996 L -49.177260000000004 52.892559999999996 C -51.22916000000001 52.892559999999996 -52.89256 43.74404 -52.89256 32.45878 z" stroke-linecap="round" />
</g>
<g transform="matrix(6.04 0 0 1.0982015504 320.0000119802 58.6156225075)" id="4_1U8GkHa_Vryy7dWg9uy"  >
<path style="stroke: rgb(159,57,216); stroke-width: 0; stroke-dasharray: none; stroke-linecap: butt; stroke-dashoffset: 0; stroke-linejoin: miter; stroke-miterlimit: 4; fill: rgb(0,0,0); fill-rule: nonzero; opacity: 1;"  transform=" translate(0, 0.000005)" d="M -52.89256 -32.45878 C -52.89256 -37.878159999999994 -52.50113 -43.07557 -51.804370000000006 -46.90765 C -51.107620000000004 -50.739729999999994 -50.16261000000001 -52.89257 -49.177260000000004 -52.89257 L 49.17725999999999 -52.89257 L 49.17725999999999 -52.89257 C 50.16261999999999 -52.89257 51.10761999999999 -50.73973 51.80436999999999 -46.90765 C 52.50111999999999 -43.07557 52.89255999999999 -37.878159999999994 52.89255999999999 -32.45878 L 52.89255999999999 32.45878 L 52.89255999999999 32.45878 C 52.89255999999999 43.74405 51.229159999999986 52.892559999999996 49.17725999999999 52.892559999999996 L -49.177260000000004 52.892559999999996 L -49.177260000000004 52.892559999999996 C -51.22916000000001 52.892559999999996 -52.89256 43.74404 -52.89256 32.45878 z" stroke-linecap="round" />
</g>
<g transform="matrix(6.04 0 0 1.0982015504 319.9999880198 581.3843774925)" id="XBcwf5-3JBM1fgQqEoh1q"  >
<path style="stroke: rgb(159,57,216); stroke-width: 0; stroke-dasharray: none; stroke-linecap: butt; stroke-dashoffset: 0; stroke-linejoin: miter; stroke-miterlimit: 4; fill: rgb(0,0,0); fill-rule: nonzero; opacity: 1;"  transform=" translate(0, 0.000005)" d="M -52.89256 -32.45878 C -52.89256 -37.878159999999994 -52.50113 -43.07557 -51.804370000000006 -46.90765 C -51.107620000000004 -50.739729999999994 -50.16261000000001 -52.89257 -49.177260000000004 -52.89257 L 49.17725999999999 -52.89257 L 49.17725999999999 -52.89257 C 50.16261999999999 -52.89257 51.10761999999999 -50.73973 51.80436999999999 -46.90765 C 52.50111999999999 -43.07557 52.89255999999999 -37.878159999999994 52.89255999999999 -32.45878 L 52.89255999999999 32.45878 L 52.89255999999999 32.45878 C 52.89255999999999 43.74405 51.229159999999986 52.892559999999996 49.17725999999999 52.892559999999996 L -49.177260000000004 52.892559999999996 L -49.177260000000004 52.892559999999996 C -51.22916000000001 52.892559999999996 -52.89256 43.74404 -52.89256 32.45878 z" stroke-linecap="round" />
</g>
</svg>