<?xml version="1.0" encoding="UTF-8" standalone="no" ?>
<!DOCTYPE svg PUBLIC "-//W3C//DTD SVG 1.1//EN" "http://www.w3.org/Graphics/SVG/1.1/DTD/svg11.dtd">
<svg xmlns="http://www.w3.org/2000/svg" xmlns:xlink="http://www.w3.org/1999/xlink" version="1.1" width="340.16129" height="322.64947969169987" viewBox="272.2604656532292 38.91935273201506 340.16129 322.64947969169987" xml:space="preserve">
<desc>Created with Fabric.js 5.3.0</desc>
<defs>
</defs>
<g transform="matrix(0.605988 0 0 -0.615628008 442.4054324291 336.7451224237)" id="daQAH0C36htmRS8ilzuRU"  >
<path style="stroke: rgb(8,192,32); stroke-width: 0; stroke-dasharray: none; stroke-linecap: butt; stroke-dashoffset: 0; stroke-linejoin: miter; stroke-miterlimit: 4; fill: rgb(238,161,84); fill-rule: nonzero; opacity: 1;"  transform=" translate(0, 0)" d="M 0 -40.32258 C 22.25806 -40.32258 40.32258 -22.25806 40.32258 0 C 40.32258 22.25806 22.25806 40.32258 0 40.32258 C -22.25806 40.32258 -40.32258 22.25806 -40.32258 0 C -40.32258 -22.25806 -22.25806 -40.32258 0 -40.32258 z" stroke-linecap="round" />
</g>
<g transform="matrix(1 0 0 1 442.4054324291 216.4596775)" id="PJiI4vqMmSk0VojTyMxiH"  >
<path style="stroke: rgb(95,250,95); stroke-width: 0; stroke-dasharray: none; stroke-linecap: butt; stroke-dashoffset: 0; stroke-linejoin: miter; stroke-miterlimit: 4; fill: rgb(238,161,84); fill-rule: nonzero; opacity: 1;"  transform=" translate(-70.5001874019, -78.024185)" d="M 70.43586 0 C 109.38747000000001 0 141.00037 31.6129 141.00037 70.56451 C 141.00037 100.9267 121.79248000000001 126.82991 94.87326 136.77759 L 94.87326 156.04837 L 45.99846 156.04837 L 45.99846 136.77759 C 45.99846 136.77759 45.99846 136.77759 45.99846 136.77759 L 45.99846 109.85567 L 70.43346 109.85567 C 91.78255999999999 109.85567 109.10937 92.25323 109.10937 70.56451000000001 C 109.10937 48.87579000000001 91.78256 31.273350000000015 70.43346 31.273350000000015 C 50.51223999999999 31.273350000000015 34.09327 46.599930000000015 31.986089999999997 66.27158000000001 L -3.552713678800501e-15 66.27158000000001 C 2.2211299999999965 29.316470000000017 32.92569 1.4210854715202004e-14 70.43586 1.4210854715202004e-14 z" stroke-linecap="round" />
</g>
<g transform="matrix(1 0 0 1 442.3411106532 130.311082732)" id="V8FGUM60xJjzflXHrTqt7"  >
<path style="stroke: rgb(23,195,177); stroke-width: 0; stroke-dasharray: none; stroke-linecap: butt; stroke-dashoffset: 0; stroke-linejoin: miter; stroke-miterlimit: 4; fill: rgb(238,161,84); fill-rule: nonzero; opacity: 1;"  transform=" translate(-170.080645, -91.39173)" d="M 0 182.78346 L 0 157.37783 L 74.31371 157.37783 C 73.76723 161.535 73.48525 165.77509999999998 73.48525 170.08066 C 73.48525 174.38621 73.76723 178.6263 74.3137 182.78346 z M 340.16129 157.37783 L 340.16129 182.78346 L 265.97626 182.78346 C 266.52274 178.6263 266.80471 174.38621 266.80471 170.08066 C 266.80471 165.7751 266.52273 161.535 265.97625 157.37783 z M 38.88515 56.84965 L 56.84964000000001 38.88516 L 111.34114000000001 93.37666 C 104.59849000000001 98.555 98.55721000000001 104.60193 93.38512000000001 111.34962 z M 157.37783 0 L 182.78346 0 L 182.78346 74.24095 C 178.64688999999998 73.7 174.42833 73.42093 170.14498 73.42093 C 165.81721000000002 73.42093 161.55558 73.70582 157.37783000000002 74.25787 z M 283.31164 38.88515 L 301.27613 56.84964000000001 L 246.84897 111.27680000000001 C 241.67063000000002 104.53415000000001 235.6237 98.49287000000001 228.876 93.32079000000002 z" stroke-linecap="round" />
</g>
</svg>